<?xml version="1.0" encoding="utf-8"?>
<!-- Generator: Adobe Illustrator 24.0.1, SVG Export Plug-In . SVG Version: 6.00 Build 0)  -->
<svg version="1.1" id="图层_1" xmlns="http://www.w3.org/2000/svg" xmlns:xlink="http://www.w3.org/1999/xlink" x="0px" y="0px"
	 viewBox="0 0 106.5 120.3" style="enable-background:new 0 0 106.5 120.3;" xml:space="preserve">
<title>资源 1</title>
<g id="图层_2_1_">
	<g id="图层_1-2">
		<g>
			<path d="M105.3,53.3c-2.4-13.6-2.4-27.4,0-41L85.8,1.4c0,0-12.8,9.4-19.5,9.4C60.9,10.9,53.4,0,53.4,0s-7.4,10.3-13,10.9
				c-5.6,0.6-19.5-9.5-19.5-9.5L0.3,12.8c0,0,6.3,15.8,1.1,41c-6.7,32,12.1,47,22,52.8c9.5,5.5,19.6,10.1,30,13.7
				c10.3-3.8,20.4-8.4,30-13.7C97.2,98.9,110.6,84.6,105.3,53.3z M81.2,103.3c-9,4.9-18.4,9.2-28,12.8c-9.7-3.3-19.1-7.6-28-12.8
				C16.1,97.8-1.5,83.9,4.7,54c4.9-23.5,0.7-38.9,0.7-38.9l15.5-9c0,0,14.3,9.4,19.5,9c5.2-0.4,13-9,13-9s7.4,9,12.5,9
				c6.2-0.1,19.5-9,19.5-9l15.5,8.5c-1.6,12.9-1.3,26,0.9,38.9C106.7,82.8,94.2,96.1,81.2,103.3z"/>
			<path d="M96.1,19.1l-12.6-6.7c0,0-12.7,8-18.2,8c-5.2,0-11.7-7.6-11.7-7.6S46.5,20,41,20.4C36.4,20.9,23.2,12,23.2,12l-12.6,7.6
				c0,0,3.4,15.4-0.9,36.5C4.2,83,20.3,95.7,28.4,100.6c8,4.7,16.4,8.6,25.2,11.6c8.7-3.5,17.1-7.5,25.2-12
				C90.2,93.8,101.4,82,97,55.7C95.1,43.6,94.8,31.3,96.1,19.1z M79.9,80c-0.7,2.7-3.4,4.5-6.2,4.1h-41c-2.8,0.4-5.5-1.4-6.1-4.2
				l0.1-41.4c0.6-2.7,3.3-4.5,6.1-4.1h41c2.8-0.5,5.5,1.4,6.2,4.1L79.9,80z"/>
		</g>
		<path d="M70.2,49.2c-0.8-0.5-7,2.4-7,2.4v-0.3c0-2.6-2.1-4.7-4.7-4.7l0,0H40.4c-2.6,0-4.7,2.1-4.7,4.7l0,0v15.8
			c0,2.6,2.1,4.7,4.7,4.7l0,0h18.2c2.6,0,4.7-2.1,4.7-4.7l0,0v-0.4c0,0,6.2,2.9,7,2.4C71,68.6,71.1,49.7,70.2,49.2z M45.7,66.7V51.6
			l12,7.6L45.7,66.7z"/>
	</g>
</g>
</svg>
